<svg id="Layer_1" data-name="Layer 1" xmlns="http://www.w3.org/2000/svg" viewBox="0 0 279.63 383.4"><defs><style>.cls-1{fill:#f7f7f7;}.cls-2{fill:red;}</style></defs><path class="cls-1" d="M321.47,162.59h0c-117.72,0-213.15,95.43-213.15,213.15h0a66.48,66.48,0,0,0,66.49,66.48H321.47A66.47,66.47,0,0,0,388,375.74V229.08A66.48,66.48,0,0,0,321.47,162.59Z" transform="translate(-108.32 -58.83)"/><path class="cls-2" d="M260.66,99.3a144,144,0,0,1,93,160.91,13.2,13.2,0,0,0,8.65,14.67l5.28,1.9A13.13,13.13,0,0,0,385,266.92c15.61-83.39-31.08-168.14-113.5-197.72a175,175,0,0,0-110.26-2.81,13.16,13.16,0,0,0-8.09,18.19l2.42,5.12a13.15,13.15,0,0,0,15.54,7.12A143.28,143.28,0,0,1,260.66,99.3Z" transform="translate(-108.32 -58.83)"/><path class="cls-2" d="M249.86,129.41a111.37,111.37,0,0,0-60.12-4.35,12.79,12.79,0,0,0-9,18l2.84,6a12.67,12.67,0,0,0,13.76,7.11,80,80,0,0,1,94.53,83.71,12.7,12.7,0,0,0,8.42,12.71l6.3,2.26a12.78,12.78,0,0,0,17.05-10.94A112,112,0,0,0,249.86,129.41Z" transform="translate(-108.32 -58.83)"/></svg>